<svg xmlns="http://www.w3.org/2000/svg" viewBox="0 0 256 256" role="img" aria-labelledby="title desc">
  <title id="title">Trứng Mây</title><desc id="desc">Quả trứng linh thú màu xanh tím nằm trong mây.</desc>
  <defs><linearGradient id="egg" x1="72" y1="45" x2="184" y2="211" gradientUnits="userSpaceOnUse"><stop stop-color="#fff"/><stop offset=".55" stop-color="#dce9ff"/><stop offset="1" stop-color="#afa8f5"/></linearGradient><radialGradient id="glow"><stop stop-color="#fff"/><stop offset="1" stop-color="#8db9ff" stop-opacity="0"/></radialGradient></defs>
  <circle cx="128" cy="126" r="112" fill="url(#glow)"/><ellipse cx="128" cy="222" rx="69" ry="13" fill="#5166a5" opacity=".16"/>
  <path d="M55 174c-17-21 1-48 26-43 2-25 34-35 51-17 18-22 54-10 54 20 28 1 39 37 18 55 4 28-30 45-50 27-17 20-50 14-59-10-22 5-41-10-40-32Z" fill="#eef7ff" stroke="#91afe1" stroke-width="6" stroke-linejoin="round"/>
  <path d="M128 39c37 0 65 66 57 118-5 34-27 55-57 55s-52-21-57-55c-8-52 20-118 57-118Z" fill="url(#egg)" stroke="#756fc7" stroke-width="7"/>
  <path d="m102 112 18 13-12 17 21 13-9 24" fill="none" stroke="#fff" stroke-width="7" stroke-linecap="round" stroke-linejoin="round" opacity=".9"/><path d="m151 70 4 10 10 4-10 4-4 10-4-10-10-4 10-4Z" fill="#ffd166"/>
</svg>
